<svg width="16" height="17" viewBox="0 0 16 17" fill="none" xmlns="http://www.w3.org/2000/svg">
<g clip-path="url(#clip0_1026_1492)">
<path d="M11.0611 6.71674C11.0611 6.71674 10.8251 4.51807 8.64308 4.45674C6.46035 4.39674 5.33961 6.10607 5.33961 8.55007C5.33961 10.9935 6.57828 12.9482 8.70301 12.9482C10.8257 12.9482 11.0617 10.5049 11.0617 10.5049L15.1311 10.7482C15.1311 10.7482 15.3711 12.9549 13.6671 14.6389C11.9658 16.3216 9.87375 16.5969 8.41635 16.5856C6.95635 16.5743 4.93228 16.6083 2.97621 14.6056C1.01755 12.5989 0.685547 10.6521 0.685547 8.7388C0.685547 6.8254 1.05621 4.292 3.38355 2.372C4.96235 1.06594 6.56568 0.585938 8.16901 0.585938C14.8638 0.585938 15.3138 6.7594 15.3138 6.7594L11.0611 6.71674Z" fill="#4B5563"/>
</g>
<defs>
<clipPath id="clip0_1026_1492">
<rect width="16" height="16" fill="white" transform="translate(0 0.585938)"/>
</clipPath>
</defs>
</svg>
