<?xml version="1.0" encoding="UTF-8" standalone="no"?>
<!DOCTYPE svg PUBLIC "-//W3C//DTD SVG 1.1//EN" "http://www.w3.org/Graphics/SVG/1.1/DTD/svg11.dtd">
<svg width="49" height="48" viewBox="0 0 49 48" fill="none" xmlns="http://www.w3.org/2000/svg">
    <path d="M47.75 24C47.75 36.8407 37.3407 47.25 24.5 47.25C11.6593 47.25 1.25 36.8407 1.25 24C1.25 11.1593 11.6593 0.75 24.5 0.75C37.3407 0.75 47.75 11.1593 47.75 24ZM21.8107 36.3107L39.0607 19.0607C39.6464 18.4749 39.6464 17.5252 39.0607 16.9394L36.9394 14.8181C36.3537 14.2323 35.4039 14.2323 34.818 14.8181L20.75 28.8861L14.182 22.318C13.5962 21.7323 12.6464 21.7323 12.0606 22.318L9.93931 24.4393C9.35356 25.0251 9.35356 25.9748 9.93931 26.5606L19.6893 36.3106C20.2752 36.8964 21.2248 36.8964 21.8107 36.3107Z" fill="#5383E8"/>
    </svg> 
    