<svg width="21" height="21" viewBox="0 0 21 21" fill="none" xmlns="http://www.w3.org/2000/svg">
<path d="M19.6623 3.9123C20.4436 3.13105 20.4436 1.8623 19.6623 1.08105C18.8811 0.299805 17.6123 0.299805 16.8311 1.08105L10.2498 7.66855L3.6623 1.0873C2.88105 0.306055 1.6123 0.306055 0.831055 1.0873C0.0498047 1.86855 0.0498047 3.1373 0.831055 3.91855L7.41855 10.4998L0.837305 17.0873C0.0560548 17.8686 0.0560548 19.1373 0.837305 19.9186C1.61855 20.6998 2.8873 20.6998 3.66855 19.9186L10.2498 13.3311L16.8373 19.9123C17.6186 20.6936 18.8873 20.6936 19.6686 19.9123C20.4498 19.1311 20.4498 17.8623 19.6686 17.0811L13.0811 10.4998L19.6623 3.9123Z" fill="#ACB5BD"/>
</svg>
