<svg width="15" height="17" viewBox="0 0 15 17" fill="none" xmlns="http://www.w3.org/2000/svg">
<path d="M14.2322 4.49985C14.1209 4.30651 13.9669 4.13785 13.7975 4.03984L7.92021 0.646512C7.58088 0.450512 7.02688 0.450512 6.68821 0.646512L0.809547 4.03984C0.470881 4.23518 0.194214 4.71518 0.194214 5.10651V11.8932C0.194214 12.0892 0.263547 12.3065 0.374881 12.4998C0.486214 12.6932 0.640214 12.8618 0.809547 12.9598L6.68688 16.3532C7.02555 16.5485 7.58021 16.5485 7.91888 16.3532L13.7962 12.9598C13.9655 12.8618 14.1195 12.6932 14.2309 12.4998C14.3422 12.3065 14.4109 12.0892 14.4109 11.8932V5.10651C14.4129 4.91051 14.3442 4.69318 14.2322 4.49985ZM7.30288 13.2398C4.68955 13.2398 2.56355 11.1132 2.56355 8.49984C2.56355 5.88651 4.69021 3.75985 7.30355 3.75985C8.13499 3.76142 8.95148 3.98097 9.67159 4.39659C10.3917 4.81221 10.9903 5.40937 11.4075 6.12851L9.35688 7.31518C9.14839 6.955 8.84902 6.65585 8.4887 6.44761C8.12838 6.23937 7.71972 6.12934 7.30355 6.12851C6.67479 6.12904 6.07194 6.37905 5.62735 6.82364C5.18275 7.26824 4.93274 7.87109 4.93221 8.49984C4.9331 9.12825 5.18317 9.73066 5.62758 10.1749C6.072 10.6192 6.67447 10.8691 7.30288 10.8698C7.71888 10.869 8.12738 10.759 8.48765 10.5511C8.84793 10.3431 9.1474 10.0443 9.35621 9.68451L11.4082 10.8712C10.9907 11.5904 10.3919 12.1876 9.67158 12.6033C8.95124 13.0189 8.13452 13.2384 7.30288 13.2398ZM12.0429 8.76318H11.5162V9.28984H10.9895V8.76318H10.4629V8.23651H10.9895V7.70984H11.5162V8.23651H12.0429V8.76318ZM14.0175 8.76318H13.4909V9.28984H12.9642V8.76318H12.4375V8.23651H12.9642V7.70984H13.4909V8.23651H14.0175V8.76318Z" fill="#F9FAFB"/>
</svg>
