<svg width="17" height="17" viewBox="0 0 17 17" fill="none" xmlns="http://www.w3.org/2000/svg">
<g clip-path="url(#clip0_989_749)">
<path d="M1.09888 5.52868V11.4707C1.09888 12.206 1.49088 12.8853 2.12821 13.2533L7.27354 16.224C7.58646 16.4048 7.94148 16.5 8.30288 16.5C8.66428 16.5 9.0193 16.4048 9.33221 16.224L14.4775 13.2533C14.7905 13.0727 15.0504 12.8129 15.2311 12.5C15.4118 12.187 15.5069 11.832 15.5069 11.4707V5.52868C15.507 5.1674 15.4119 4.81247 15.2312 4.49963C15.0505 4.18679 14.7906 3.92709 14.4775 3.74668L9.33221 0.776015C9.0193 0.595199 8.66428 0.5 8.30288 0.5C7.94148 0.5 7.58646 0.595199 7.27354 0.776015L2.12821 3.74668C1.81524 3.92714 1.55533 4.18685 1.37463 4.49968C1.19393 4.81251 1.09882 5.16742 1.09888 5.52868ZM4.70088 7.47135V9.52935C4.7007 9.59698 4.71389 9.66399 4.7397 9.72651C4.7655 9.78903 4.8034 9.84584 4.85123 9.89367C4.89905 9.94149 4.95586 9.97939 5.01838 10.0052C5.0809 10.031 5.14791 10.0442 5.21554 10.044C5.35199 10.0438 5.48279 9.98956 5.57927 9.89308C5.67575 9.7966 5.73003 9.66579 5.73021 9.52935C5.73063 9.42781 5.76103 9.32866 5.8176 9.24435C5.87417 9.16003 5.95439 9.0943 6.04818 9.05542C6.14198 9.01653 6.24517 9.00622 6.3448 9.02578C6.44444 9.04534 6.53608 9.09389 6.60821 9.16535C6.70453 9.26202 6.7587 9.39288 6.75888 9.52935C6.75888 9.73207 6.71895 9.9328 6.64137 10.1201C6.5638 10.3074 6.45009 10.4775 6.30675 10.6209C6.16341 10.7642 5.99323 10.8779 5.80595 10.9555C5.61866 11.0331 5.41793 11.073 5.21521 11.073C5.01249 11.073 4.81176 11.0331 4.62448 10.9555C4.43719 10.8779 4.26702 10.7642 4.12367 10.6209C3.98033 10.4775 3.86663 10.3074 3.78905 10.1201C3.71147 9.9328 3.67154 9.73207 3.67154 9.52935V7.47135C3.67154 7.06135 3.83421 6.66935 4.12421 6.38002C4.26739 6.23646 4.43749 6.12256 4.62476 6.04484C4.81203 5.96712 5.01279 5.92712 5.21554 5.92712C5.4183 5.92712 5.61906 5.96712 5.80633 6.04484C5.9936 6.12256 6.1637 6.23646 6.30688 6.38002C6.59621 6.66935 6.75888 7.06202 6.75888 7.47135C6.75892 7.53885 6.74563 7.60569 6.71977 7.66804C6.69392 7.73039 6.65601 7.78702 6.60821 7.83468C6.56065 7.8828 6.50402 7.92099 6.4416 7.94706C6.37917 7.97314 6.31219 7.98656 6.24454 7.98656C6.17689 7.98656 6.10992 7.97314 6.04749 7.94706C5.98506 7.92099 5.92843 7.8828 5.88088 7.83468C5.83311 7.787 5.79522 7.73036 5.76936 7.66802C5.74351 7.60567 5.73021 7.53884 5.73021 7.47135C5.73039 7.40371 5.71719 7.33671 5.69139 7.27419C5.66559 7.21167 5.62769 7.15486 5.57986 7.10703C5.53203 7.05921 5.47523 7.0213 5.41271 6.9955C5.35018 6.9697 5.28318 6.95651 5.21554 6.95668C5.14793 6.95659 5.08097 6.96985 5.01849 6.99568C4.956 7.02151 4.89923 7.05942 4.85142 7.10723C4.80362 7.15504 4.76571 7.21181 4.73988 7.27429C4.71404 7.33677 4.70079 7.40374 4.70088 7.47135ZM12.9342 9.52935C12.9344 9.59698 12.9212 9.66399 12.8954 9.72651C12.8696 9.78903 12.8317 9.84584 12.7839 9.89367C12.736 9.94149 12.6792 9.97939 12.6167 10.0052C12.5542 10.031 12.4872 10.0442 12.4195 10.044H11.9049V10.5587C11.8982 10.6906 11.841 10.815 11.7452 10.906C11.6494 10.9971 11.5223 11.0478 11.3902 11.0478C11.2581 11.0478 11.131 10.9971 11.0352 10.906C10.9394 10.815 10.8823 10.6906 10.8755 10.5587V10.044H9.84621V10.5587C9.84579 10.6602 9.81539 10.7594 9.75882 10.8437C9.70225 10.928 9.62203 10.9937 9.52824 11.0326C9.43444 11.0715 9.33125 11.0818 9.23162 11.0623C9.13198 11.0427 9.04035 10.9941 8.96821 10.9227C8.87189 10.826 8.81772 10.6952 8.81754 10.5587V10.044H8.30288C8.16638 10.044 8.03547 9.98979 7.93895 9.89327C7.84243 9.79675 7.78821 9.66585 7.78821 9.52935C7.78821 9.39285 7.84243 9.26194 7.93895 9.16542C8.03547 9.06891 8.16638 9.01468 8.30288 9.01468H8.81754V7.98602H8.30288C8.16638 7.98602 8.03547 7.93179 7.93895 7.83527C7.84243 7.73875 7.78821 7.60785 7.78821 7.47135C7.78821 7.33485 7.84243 7.20394 7.93895 7.10742C8.03547 7.01091 8.16638 6.95668 8.30288 6.95668H8.81754V6.44202C8.81796 6.34048 8.84836 6.24133 8.90493 6.15701C8.9615 6.0727 9.04172 6.00697 9.13552 5.96808C9.22931 5.9292 9.3325 5.91889 9.43214 5.93845C9.53177 5.958 9.62341 6.00656 9.69554 6.07802C9.79187 6.17469 9.84603 6.30555 9.84621 6.44202V6.95668H10.8755V6.44202C10.8823 6.31005 10.9394 6.1857 11.0352 6.09467C11.131 6.00365 11.2581 5.95289 11.3902 5.95289C11.5223 5.95289 11.6494 6.00365 11.7452 6.09467C11.841 6.1857 11.8982 6.31005 11.9049 6.44202V6.95668H12.4195C12.556 6.95668 12.6869 7.01091 12.7835 7.10742C12.88 7.20394 12.9342 7.33485 12.9342 7.47135C12.9342 7.60785 12.88 7.73875 12.7835 7.83527C12.6869 7.93179 12.556 7.98602 12.4195 7.98602H11.9049V9.01468H12.4195C12.5558 9.01538 12.6863 9.06983 12.7827 9.1662C12.8791 9.26257 12.9335 9.39307 12.9342 9.52935ZM10.8755 7.98602H9.84621V9.01468H10.8755V7.98602Z" fill="#F9FAFB"/>
</g>
<defs>
<clipPath id="clip0_989_749">
<rect width="16" height="16" fill="white" transform="translate(0.302856 0.5)"/>
</clipPath>
</defs>
</svg>
