<?xml version="1.0" encoding="UTF-8" standalone="no"?>
<!DOCTYPE svg PUBLIC "-//W3C//DTD SVG 1.1//EN" "http://www.w3.org/Graphics/SVG/1.1/DTD/svg11.dtd">
<svg width="49" height="49" viewBox="0 0 49 49" fill="none" xmlns="http://www.w3.org/2000/svg">
    <g clip-path="url(#clip0_782_7374)">
    <path d="M24.2695 1.64844C11.4268 1.64844 1.01953 12.0586 1.01953 24.8984C1.01953 37.7383 11.4268 48.1484 24.2695 48.1484C37.1123 48.1484 47.5195 37.7383 47.5195 24.8984C47.5195 12.0586 37.1123 1.64844 24.2695 1.64844ZM35.043 31.5625C36.1793 32.6988 36.1793 34.5356 35.043 35.6719C34.4763 36.2386 33.7323 36.5234 32.9883 36.5234C32.2443 36.5234 31.5003 36.2386 30.9336 35.6719L24.2695 29.0079L17.6055 35.6719C17.0388 36.2386 16.2948 36.5234 15.5508 36.5234C14.8068 36.5234 14.0628 36.2386 13.4961 35.6719C12.3597 34.5356 12.3597 32.6988 13.4961 31.5625L20.1601 24.8984L13.4961 18.2344C12.3597 17.0981 12.3597 15.2613 13.4961 14.125C14.6324 12.9886 16.4692 12.9886 17.6055 14.125L24.2695 20.789L30.9336 14.125C32.0699 12.9886 33.9067 12.9886 35.043 14.125C36.1793 15.2613 36.1793 17.0981 35.043 18.2344L28.379 24.8984L35.043 31.5625Z" fill="#E84057"/>
    </g>
    <defs>
    <clipPath id="clip0_782_7374">
    <rect width="48" height="48" fill="white" transform="translate(0.269531 0.898438)"/>
    </clipPath>
    </defs>
    </svg>
    