<svg width="17" height="17" viewBox="0 0 17 17" fill="none" xmlns="http://www.w3.org/2000/svg">
<path d="M0.802856 0.5H16.8029V16.5H0.802856V0.5ZM15.4922 12.684C15.3755 11.954 14.9002 11.3407 13.4902 10.7687C12.9995 10.5387 12.4542 10.3787 12.2922 10.0087C12.2315 9.78867 12.2222 9.66867 12.2615 9.53867C12.3615 9.108 12.8715 8.97867 13.2715 9.09867C13.5315 9.17867 13.7715 9.37867 13.9222 9.69867C14.6115 9.248 14.6115 9.248 15.0922 8.94867C14.9122 8.66867 14.8229 8.548 14.7015 8.42867C14.2815 7.95867 13.7222 7.71867 12.8122 7.73933L12.3422 7.79867C11.8915 7.90867 11.4622 8.14867 11.2022 8.46867C10.4422 9.32933 10.6615 10.8293 11.5815 11.4493C12.4915 12.1293 13.8222 12.2787 13.9922 12.9193C14.1522 13.6993 13.4122 13.9493 12.6815 13.8593C12.1409 13.7393 11.8415 13.4687 11.5115 12.9687L10.2915 13.6693C10.4315 13.9893 10.5915 14.1287 10.8315 14.4087C11.9915 15.5793 14.8915 15.5193 15.4122 13.7393C15.4315 13.6793 15.5722 13.2693 15.4615 12.6393L15.4922 12.684ZM9.50352 7.854H8.00486C8.00486 9.146 7.99886 10.43 7.99886 11.724C7.99886 12.5453 8.04086 13.2993 7.90686 13.5313C7.68686 13.9907 7.12019 13.932 6.86286 13.8513C6.59886 13.7207 6.46486 13.5407 6.30952 13.2813C6.26752 13.2113 6.23619 13.1507 6.22486 13.1507L5.00819 13.9007C5.21152 14.3207 5.50819 14.682 5.89086 14.912C6.46086 15.252 7.22686 15.362 8.02886 15.182C8.55086 15.0313 9.00086 14.7213 9.23619 14.2413C9.57619 13.6213 9.50419 12.8613 9.50086 12.0107C9.50886 10.6413 9.50086 9.27133 9.50086 7.89133L9.50352 7.854Z" fill="#F9FAFB"/>
</svg>
