<svg width="16" height="17" viewBox="0 0 16 17" fill="none" xmlns="http://www.w3.org/2000/svg">
<g clip-path="url(#clip0_1026_1935)">
<path d="M0 0.585938H16V16.5859H0V0.585938ZM14.6893 12.7699C14.5727 12.0399 14.0973 11.4266 12.6873 10.8546C12.1967 10.6246 11.6513 10.4646 11.4893 10.0946C11.4287 9.8746 11.4193 9.7546 11.4587 9.6246C11.5587 9.19394 12.0687 9.0646 12.4687 9.1846C12.7287 9.2646 12.9687 9.4646 13.1193 9.78461C13.8087 9.33394 13.8087 9.33394 14.2893 9.03461C14.1093 8.7546 14.02 8.63394 13.8987 8.5146C13.4787 8.0446 12.9193 7.8046 12.0093 7.82527L11.5393 7.8846C11.0887 7.9946 10.6593 8.2346 10.3993 8.5546C9.63933 9.41527 9.85867 10.9153 10.7787 11.5353C11.6887 12.2153 13.0193 12.3646 13.1893 13.0053C13.3493 13.7853 12.6093 14.0353 11.8787 13.9453C11.338 13.8253 11.0387 13.5546 10.7087 13.0546L9.48867 13.7553C9.62867 14.0753 9.78867 14.2146 10.0287 14.4946C11.1887 15.6653 14.0887 15.6053 14.6093 13.8253C14.6287 13.7653 14.7693 13.3553 14.6587 12.7253L14.6893 12.7699ZM8.70067 7.93994H7.202C7.202 9.23194 7.196 10.5159 7.196 11.8099C7.196 12.6313 7.238 13.3853 7.104 13.6173C6.884 14.0766 6.31733 14.0179 6.06 13.9373C5.796 13.8066 5.662 13.6266 5.50667 13.3673C5.46467 13.2973 5.43333 13.2366 5.422 13.2366L4.20533 13.9866C4.40867 14.4066 4.70533 14.7679 5.088 14.9979C5.658 15.3379 6.424 15.4479 7.226 15.2679C7.748 15.1173 8.198 14.8073 8.43333 14.3273C8.77333 13.7073 8.70133 12.9473 8.698 12.0966C8.706 10.7273 8.698 9.35727 8.698 7.97727L8.70067 7.93994Z" fill="#4B5563"/>
</g>
<defs>
<clipPath id="clip0_1026_1935">
<rect width="16" height="16" fill="white" transform="translate(0 0.585938)"/>
</clipPath>
</defs>
</svg>
