<svg width="13" height="16" viewBox="0 0 13 16" fill="none" xmlns="http://www.w3.org/2000/svg">
<path fill-rule="evenodd" clip-rule="evenodd" d="M4.6097 12.461C2.23173 13.1253 6.05653 14.4978 9.08453 13.2005C8.58858 13.0077 8.23285 12.7853 8.23285 12.7853C6.88261 13.0406 6.25632 13.0606 5.03061 12.9206C4.01906 12.8048 4.6097 12.461 4.6097 12.461ZM8.72202 11.1649C6.93232 11.5092 5.89856 11.4982 4.58928 11.3631C3.57684 11.2585 4.23962 10.7678 4.23962 10.7678C1.62063 11.6371 5.6976 12.6235 9.35802 11.5529C8.96896 11.4158 8.72202 11.1649 8.72202 11.1649ZM10.1245 3.65934C10.1245 3.65934 4.82992 4.98128 7.35856 7.89531C8.10496 8.75456 7.16277 9.52709 7.16277 9.52709C7.16277 9.52709 9.05717 8.54939 8.18736 7.32448C7.37466 6.18267 6.75168 5.61543 10.1245 3.65934ZM11.3633 13.7135C11.3633 13.7135 11.8005 14.0741 10.8815 14.3527C9.13424 14.8821 3.60757 15.0417 2.07251 14.3739C1.52113 14.1338 2.55561 13.8009 2.88111 13.7306C3.22049 13.6571 3.41427 13.6705 3.41427 13.6705C2.8007 13.2385 -0.552301 14.5193 1.71157 14.8866C7.88464 15.8873 12.9643 14.436 11.3633 13.7135ZM9.24165 9.95509C9.5384 9.75264 9.94832 9.5768 9.94832 9.5768C9.94832 9.5768 8.78064 9.7856 7.61728 9.88336C6.19312 10.0028 4.66549 10.0263 3.89862 9.92373C2.08317 9.68101 4.89397 9.01328 4.89397 9.01328C4.89397 9.01328 3.8021 8.93941 2.45996 9.58869C0.872483 10.3563 6.38666 10.7062 9.24165 9.95509ZM9.93664 11.8316C9.92325 11.8676 9.87866 11.9079 9.87866 11.9079C13.7535 10.8893 12.3289 8.31728 10.4762 8.96832C10.3135 9.02581 10.2283 9.15947 10.2283 9.15947C10.2283 9.15947 10.331 9.11808 10.5602 9.07029C11.4967 8.87515 12.8386 10.3241 9.93664 11.8316ZM6.66208 8.98528C6.0904 7.69307 4.15178 6.56256 6.66293 4.57933C9.79418 2.1078 8.18746 0.5 8.18746 0.5C8.83552 3.05344 5.90128 3.82475 4.84218 5.41495C4.12091 6.49851 5.19616 7.66283 6.66208 8.98528ZM10.0415 15.3971C7.6641 15.8447 4.73162 15.7925 2.99288 15.5054C2.99288 15.5054 3.34898 15.8003 5.1793 15.9181C7.96421 16.0962 12.2419 15.819 12.343 14.5012C12.343 14.5012 12.1485 15.0007 10.0415 15.3971Z" fill="#F9FAFB"/>
</svg>
