<?xml version="1.0" encoding="UTF-8" standalone="no"?>
<!DOCTYPE svg PUBLIC "-//W3C//DTD SVG 1.1//EN" "http://www.w3.org/Graphics/SVG/1.1/DTD/svg11.dtd">
<svg width="16" height="20" viewBox="0 0 16 20" fill="none" xmlns="http://www.w3.org/2000/svg">
    <g clip-path="url(#clip0_858_8357)">
    <path d="M0 0V16.3961L7.80352 20L15.625 16.3961V0H0Z" fill="#9CA3AF"/>
    <path d="M11.3985 5.21834C11.4031 5.49441 11.3651 5.76954 11.2856 6.03397C11.2119 6.26378 11.1044 6.48138 10.9668 6.67967C10.8242 6.88355 10.6581 7.06998 10.4719 7.23514C10.2784 7.40884 10.0592 7.58931 9.81411 7.77655C9.66333 7.89842 9.53794 8.00662 9.43911 8.09998C9.34758 8.18435 9.26865 8.28144 9.20474 8.38826C9.14906 8.48459 9.1086 8.58895 9.08481 8.69764C9.05922 8.82491 9.0473 8.95455 9.04927 9.08436V9.45311H6.8563V8.91678C6.85369 8.69679 6.8773 8.47728 6.92661 8.26287C6.97081 8.07774 7.04188 7.90007 7.13755 7.73553C7.23634 7.56955 7.35178 7.41405 7.48208 7.27147C7.63433 7.10663 7.7969 6.95163 7.9688 6.8074L8.43286 6.37147C8.58459 6.23917 8.72135 6.09063 8.84067 5.9285C8.95553 5.76647 9.01474 5.57157 9.00942 5.37303C9.00942 5.07329 8.91828 4.83423 8.73599 4.65584C8.55369 4.47746 8.30291 4.38839 7.98364 4.38865C7.58989 4.38865 7.29458 4.52225 7.0977 4.78944C6.90214 5.05292 6.78954 5.3687 6.77427 5.69647L4.53833 5.4574C4.59458 4.95115 4.72349 4.50584 4.92505 4.12147C5.11415 3.75112 5.37931 3.42487 5.70317 3.16404C6.02602 2.90879 6.39344 2.71567 6.78677 2.59451C7.2022 2.46624 7.6348 2.40222 8.06958 2.40467C8.48636 2.404 8.90141 2.45838 9.30395 2.56639C9.68774 2.66704 10.049 2.83933 10.3688 3.0742C10.6813 3.30683 10.9369 3.60734 11.1165 3.95311C11.3042 4.30962 11.3982 4.73136 11.3985 5.21834ZM9.3313 11.434C9.33489 11.6108 9.30176 11.7864 9.23398 11.9497C9.1662 12.113 9.06526 12.2605 8.93755 12.3828C8.67505 12.6406 8.35161 12.7695 7.96724 12.7695C7.78677 12.7708 7.60773 12.7374 7.43989 12.6711C7.2775 12.6069 7.12937 12.5113 7.00396 12.3898C6.87795 12.2691 6.77543 12.1261 6.70161 11.968C6.62576 11.8051 6.58732 11.6273 6.58911 11.4476C6.58885 11.2711 6.62475 11.0965 6.69458 10.9344C6.76318 10.7728 6.86361 10.6266 6.98989 10.5047C7.11828 10.3818 7.26852 10.284 7.43286 10.2164C7.60217 10.146 7.78386 10.1101 7.96724 10.1109C8.14838 10.1096 8.32786 10.1455 8.49458 10.2164C8.6549 10.2845 8.80235 10.3797 8.93052 10.4976C9.05756 10.6159 9.1582 10.7597 9.22583 10.9195C9.29582 11.082 9.33172 11.2571 9.3313 11.434Z" fill="white"/>
    </g>
    <defs>
    <clipPath id="clip0_858_8357">
    <rect width="15.625" height="20" fill="white"/>
    </clipPath>
    </defs>
    </svg>
    