<?xml version="1.0" encoding="UTF-8" standalone="no"?>
<svg width="128" height="129" viewBox="0 0 128 129" fill="none" xmlns="http://www.w3.org/2000/svg">
<circle cx="64" cy="64.4609" r="64" fill="#D4E0F9"/>
<g clip-path="url(#clip0_2588_8466)">
<path d="M64 64.4609C68.7739 64.4609 73.3523 62.5645 76.7279 59.1889C80.1036 55.8132 82 51.2348 82 46.4609C82 41.687 80.1036 37.1087 76.7279 33.733C73.3523 30.3574 68.7739 28.4609 64 28.4609C59.2261 28.4609 54.6477 30.3574 51.2721 33.733C47.8964 37.1087 46 41.687 46 46.4609C46 51.2348 47.8964 55.8132 51.2721 59.1889C54.6477 62.5645 59.2261 64.4609 64 64.4609ZM57.5734 71.2109C43.7219 71.2109 32.5 82.4328 32.5 96.2844C32.5 98.5906 34.3703 100.461 36.6766 100.461H91.3234C93.6297 100.461 95.5 98.5906 95.5 96.2844C95.5 82.4328 84.2781 71.2109 70.4266 71.2109H57.5734Z" fill="#7EA2EE"/>
</g>
<defs>
<clipPath id="clip0_2588_8466">
<rect width="72" height="72" fill="white" transform="translate(28 28.4609)"/>
</clipPath>
</defs>
</svg>
