<svg width="17" height="17" viewBox="0 0 17 17" fill="none" xmlns="http://www.w3.org/2000/svg">
<g clip-path="url(#clip0_782_7632)">
<path d="M12.6238 10.9828C13.5921 9.66146 14.0257 8.02326 13.8381 6.39592C13.6504 4.76858 12.8552 3.27211 11.6115 2.2059C10.3679 1.13969 8.76751 0.582376 7.13059 0.645449C5.49368 0.708522 3.94094 1.38733 2.78303 2.54608C1.62511 3.70483 0.947408 5.25805 0.885506 6.89501C0.823604 8.53196 1.38207 10.1319 2.44916 11.3748C3.51626 12.6177 5.0133 13.4118 6.64078 13.5984C8.26825 13.7849 9.90614 13.35 11.2268 12.3808H11.2258C11.2558 12.4208 11.2878 12.4588 11.3238 12.4958L15.1738 16.3458C15.3613 16.5334 15.6156 16.6389 15.8809 16.639C16.1462 16.6391 16.4006 16.5338 16.5883 16.3463C16.7759 16.1588 16.8814 15.9044 16.8815 15.6391C16.8816 15.3739 16.7763 15.1194 16.5888 14.9318L12.7388 11.0818C12.703 11.0456 12.6646 11.0132 12.6238 10.9828ZM12.8818 7.13877C12.8818 7.86104 12.7395 8.57624 12.4631 9.24353C12.1867 9.91082 11.7816 10.5171 11.2708 11.0279C10.7601 11.5386 10.1538 11.9437 9.48652 12.2201C8.81923 12.4965 8.10403 12.6388 7.38176 12.6388C6.65949 12.6388 5.94429 12.4965 5.277 12.2201C4.60971 11.9437 4.00339 11.5386 3.49267 11.0279C2.98195 10.5171 2.57682 9.91082 2.30042 9.24353C2.02402 8.57624 1.88176 7.86104 1.88176 7.13877C1.88176 5.68008 2.46122 4.28114 3.49267 3.24969C4.52412 2.21824 5.92307 1.63877 7.38176 1.63877C8.84045 1.63877 10.2394 2.21824 11.2708 3.24969C12.3023 4.28114 12.8818 5.68008 12.8818 7.13877Z" fill="#4B5563"/>
</g>
<defs>
<clipPath id="clip0_782_7632">
<rect width="16" height="16" fill="white" transform="translate(0.881836 0.640625)"/>
</clipPath>
</defs>
</svg>
