<svg width="16" height="17" viewBox="0 0 16 17" fill="none" xmlns="http://www.w3.org/2000/svg">
<path d="M11.3643 6.6308C11.3643 6.6308 11.1283 4.43213 8.9463 4.3708C6.76357 4.3108 5.64284 6.02013 5.64284 8.46413C5.64284 10.9075 6.8815 12.8623 9.00624 12.8623C11.1289 12.8623 11.365 10.4189 11.365 10.4189L15.4344 10.6623C15.4344 10.6623 15.6744 12.8689 13.9704 14.5529C12.269 16.2357 10.177 16.511 8.71957 16.4997C7.25957 16.4883 5.2355 16.5223 3.27944 14.5197C1.32077 12.5129 0.98877 10.5662 0.98877 8.65287C0.98877 6.73947 1.35944 4.20607 3.68677 2.28607C5.26557 0.98 6.8689 0.5 8.47224 0.5C15.167 0.5 15.617 6.67347 15.617 6.67347L11.3643 6.6308Z" fill="#F9FAFB"/>
</svg>
