<svg width="16" height="17" viewBox="0 0 16 17" fill="none" xmlns="http://www.w3.org/2000/svg">
<path d="M14.9286 4.58627C14.8173 4.39294 14.6633 4.22427 14.494 4.12627L8.61662 0.732937C8.27729 0.536937 7.72329 0.536937 7.38463 0.732937L1.50596 4.12627C1.16729 4.3216 0.890625 4.8016 0.890625 5.19294V11.9796C0.890625 12.1756 0.959958 12.3929 1.07129 12.5863C1.18263 12.7796 1.33662 12.9483 1.50596 13.0463L7.38329 16.4396C7.72196 16.6349 8.27663 16.6349 8.61529 16.4396L14.4926 13.0463C14.662 12.9483 14.816 12.7796 14.9273 12.5863C15.0386 12.3929 15.1073 12.1756 15.1073 11.9796V5.19294C15.1093 4.99694 15.0406 4.7796 14.9286 4.58627ZM7.99929 13.3263C5.38596 13.3263 3.25996 11.1996 3.25996 8.58627C3.25996 5.97294 5.38663 3.84627 7.99996 3.84627C8.8314 3.84785 9.64789 4.0674 10.368 4.48302C11.0881 4.89864 11.6867 5.4958 12.104 6.21494L10.0533 7.4016C9.8448 7.04143 9.54544 6.74227 9.18511 6.53403C8.82479 6.3258 8.41613 6.21576 7.99996 6.21494C7.3712 6.21547 6.76835 6.46547 6.32376 6.91007C5.87916 7.35467 5.62916 7.95752 5.62863 8.58627C5.62951 9.21468 5.87958 9.81709 6.32399 10.2614C6.76841 10.7057 7.37088 10.9556 7.99929 10.9563C8.41529 10.9554 8.82379 10.8455 9.18406 10.6375C9.54434 10.4295 9.84381 10.1307 10.0526 9.77094L12.1046 10.9576C11.6871 11.6768 11.0883 12.2741 10.368 12.6897C9.64765 13.1053 8.83093 13.3248 7.99929 13.3263ZM12.7393 8.8496H12.2126V9.37627H11.686V8.8496H11.1593V8.32294H11.686V7.79627H12.2126V8.32294H12.7393V8.8496ZM14.714 8.8496H14.1873V9.37627H13.6606V8.8496H13.134V8.32294H13.6606V7.79627H14.1873V8.32294H14.714V8.8496Z" fill="#4B5563"/>
</svg>
