<svg width="16" height="17" viewBox="0 0 16 17" fill="none" xmlns="http://www.w3.org/2000/svg">
<path d="M0.796875 5.61462V11.5566C0.796875 12.292 1.18887 12.9713 1.82621 13.3393L6.97154 16.31C7.28445 16.4908 7.63948 16.586 8.00087 16.586C8.36227 16.586 8.7173 16.4908 9.03021 16.31L14.1755 13.3393C14.4885 13.1587 14.7484 12.8988 14.9291 12.5859C15.1098 12.273 15.2049 11.918 15.2049 11.5566V5.61462C15.205 5.25334 15.1099 4.89841 14.9292 4.58557C14.7485 4.27273 14.4886 4.01303 14.1755 3.83262L9.03021 0.861953C8.7173 0.681137 8.36227 0.585938 8.00087 0.585938C7.63948 0.585938 7.28445 0.681137 6.97154 0.861953L1.82621 3.83262C1.51324 4.01308 1.25333 4.27279 1.07263 4.58562C0.891932 4.89845 0.796823 5.25335 0.796875 5.61462ZM4.39888 7.55729V9.61529C4.3987 9.68292 4.41189 9.74993 4.43769 9.81245C4.4635 9.87497 4.5014 9.93178 4.54923 9.9796C4.59705 10.0274 4.65386 10.0653 4.71638 10.0911C4.7789 10.1169 4.84591 10.1301 4.91354 10.13C5.04999 10.1298 5.18079 10.0755 5.27727 9.97902C5.37375 9.88253 5.42803 9.75173 5.42821 9.61529C5.42862 9.51375 5.45903 9.4146 5.5156 9.33028C5.57217 9.24597 5.65238 9.18024 5.74618 9.14135C5.83998 9.10247 5.94317 9.09216 6.0428 9.11172C6.14244 9.13127 6.23407 9.17983 6.30621 9.25129C6.40253 9.34796 6.4567 9.47882 6.45687 9.61529C6.45687 9.818 6.41695 10.0187 6.33937 10.206C6.26179 10.3933 6.14809 10.5635 6.00475 10.7068C5.8614 10.8502 5.69123 10.9639 5.50394 11.0414C5.31666 11.119 5.11593 11.159 4.91321 11.159C4.71049 11.159 4.50976 11.119 4.32247 11.0414C4.13519 10.9639 3.96501 10.8502 3.82167 10.7068C3.67833 10.5635 3.56462 10.3933 3.48705 10.206C3.40947 10.0187 3.36954 9.818 3.36954 9.61529V7.55729C3.36954 7.14729 3.53221 6.75529 3.82221 6.46595C3.96539 6.32239 4.13548 6.20849 4.32275 6.13078C4.51002 6.05306 4.71079 6.01306 4.91354 6.01306C5.1163 6.01306 5.31706 6.05306 5.50433 6.13078C5.6916 6.20849 5.8617 6.32239 6.00488 6.46595C6.29421 6.75529 6.45687 7.14795 6.45687 7.55729C6.45692 7.62478 6.44363 7.69163 6.41777 7.75398C6.39192 7.81633 6.354 7.87296 6.30621 7.92062C6.25865 7.96873 6.20202 8.00693 6.1396 8.033C6.07717 8.05907 6.01019 8.0725 5.94254 8.0725C5.87489 8.0725 5.80791 8.05907 5.74549 8.033C5.68306 8.00693 5.62643 7.96873 5.57888 7.92062C5.53111 7.87294 5.49322 7.8163 5.46736 7.75396C5.44151 7.69161 5.4282 7.62478 5.42821 7.55729C5.42838 7.48965 5.41519 7.42265 5.38939 7.36012C5.36359 7.2976 5.32569 7.2408 5.27786 7.19297C5.23003 7.14514 5.17323 7.10724 5.1107 7.08144C5.04818 7.05564 4.98118 7.04244 4.91354 7.04262C4.84593 7.04253 4.77897 7.05578 4.71648 7.08162C4.654 7.10745 4.59723 7.14536 4.54942 7.19317C4.50161 7.24097 4.46371 7.29775 4.43787 7.36023C4.41204 7.42271 4.39879 7.48967 4.39888 7.55729ZM12.6322 9.61529C12.6324 9.68292 12.6192 9.74993 12.5934 9.81245C12.5676 9.87497 12.5297 9.93178 12.4819 9.9796C12.434 10.0274 12.3772 10.0653 12.3147 10.0911C12.2522 10.1169 12.1852 10.1301 12.1175 10.13H11.6029V10.6446C11.5962 10.7766 11.539 10.9009 11.4432 10.992C11.3474 11.083 11.2203 11.1337 11.0882 11.1337C10.9561 11.1337 10.829 11.083 10.7332 10.992C10.6374 10.9009 10.5803 10.7766 10.5735 10.6446V10.13H9.54421V10.6446C9.54379 10.7462 9.51339 10.8453 9.45682 10.9296C9.40025 11.0139 9.32003 11.0797 9.22624 11.1186C9.13244 11.1574 9.02925 11.1677 8.92962 11.1482C8.82998 11.1286 8.73834 11.0801 8.66621 11.0086C8.56988 10.9119 8.51572 10.7811 8.51554 10.6446V10.13H8.00087C7.86438 10.13 7.73347 10.0757 7.63695 9.97921C7.54043 9.88269 7.48621 9.75178 7.48621 9.61529C7.48621 9.47879 7.54043 9.34788 7.63695 9.25136C7.73347 9.15484 7.86438 9.10062 8.00087 9.10062H8.51554V8.07195H8.00087C7.86438 8.07195 7.73347 8.01773 7.63695 7.92121C7.54043 7.82469 7.48621 7.69378 7.48621 7.55729C7.48621 7.42079 7.54043 7.28988 7.63695 7.19336C7.73347 7.09684 7.86438 7.04262 8.00087 7.04262H8.51554V6.52795C8.51596 6.42642 8.54636 6.32727 8.60293 6.24295C8.6595 6.15863 8.73972 6.09291 8.83351 6.05402C8.92731 6.01514 9.0305 6.00482 9.13013 6.02438C9.22977 6.04394 9.32141 6.0925 9.39354 6.16395C9.48987 6.26063 9.54403 6.39148 9.54421 6.52795V7.04262H10.5735V6.52795C10.5803 6.39599 10.6374 6.27164 10.7332 6.18061C10.829 6.08958 10.9561 6.03882 11.0882 6.03882C11.2203 6.03882 11.3474 6.08958 11.4432 6.18061C11.539 6.27164 11.5962 6.39599 11.6029 6.52795V7.04262H12.1175C12.254 7.04262 12.3849 7.09684 12.4815 7.19336C12.578 7.28988 12.6322 7.42079 12.6322 7.55729C12.6322 7.69378 12.578 7.82469 12.4815 7.92121C12.3849 8.01773 12.254 8.07195 12.1175 8.07195H11.6029V9.10062H12.1175C12.2538 9.10132 12.3843 9.15577 12.4807 9.25214C12.5771 9.3485 12.6315 9.479 12.6322 9.61529ZM10.5735 8.07195H9.54421V9.10062H10.5735V8.07195Z" fill="#4B5563"/>
</svg>
