<svg width="16" height="17" viewBox="0 0 16 17" fill="none" xmlns="http://www.w3.org/2000/svg">
<g clip-path="url(#clip0_1026_5709)">
<path fill-rule="evenodd" clip-rule="evenodd" d="M5.80636 12.461C3.42838 13.1253 7.25319 14.4978 10.2812 13.2005C9.78524 13.0077 9.4295 12.7853 9.4295 12.7853C8.07927 13.0406 7.45297 13.0606 6.22727 12.9206C5.21571 12.8048 5.80636 12.461 5.80636 12.461ZM9.91868 11.1649C8.12897 11.5092 7.09521 11.4982 5.78593 11.3631C4.7735 11.2585 5.43628 10.7678 5.43628 10.7678C2.81728 11.6371 6.89425 12.6235 10.5547 11.5529C10.1656 11.4158 9.91868 11.1649 9.91868 11.1649ZM11.3211 3.65934C11.3211 3.65934 6.02657 4.98128 8.55521 7.89531C9.30161 8.75456 8.35943 9.52709 8.35943 9.52709C8.35943 9.52709 10.2538 8.54939 9.38401 7.32448C8.57132 6.18267 7.94833 5.61543 11.3211 3.65934ZM12.56 13.7135C12.56 13.7135 12.9972 14.0741 12.0782 14.3527C10.3309 14.8821 4.80423 15.0417 3.26916 14.3739C2.71778 14.1338 3.75227 13.8009 4.07777 13.7306C4.41714 13.6571 4.61093 13.6705 4.61093 13.6705C3.99735 13.2385 0.644354 14.5193 2.90823 14.8866C9.08129 15.8873 14.1609 14.436 12.56 13.7135ZM10.4383 9.95509C10.7351 9.75264 11.145 9.5768 11.145 9.5768C11.145 9.5768 9.97729 9.7856 8.81393 9.88336C7.38977 10.0028 5.86215 10.0263 5.09528 9.92373C3.27982 9.68101 6.09063 9.01328 6.09063 9.01328C6.09063 9.01328 4.99875 8.93941 3.65662 9.58869C2.06914 10.3563 7.58332 10.7062 10.4383 9.95509ZM11.1333 11.8316C11.1199 11.8676 11.0753 11.9079 11.0753 11.9079C14.9502 10.8893 13.5256 8.31728 11.6728 8.96832C11.5102 9.02581 11.425 9.15947 11.425 9.15947C11.425 9.15947 11.5277 9.11808 11.7568 9.07029C12.6934 8.87515 14.0353 10.3241 11.1333 11.8316ZM7.85873 8.98528C7.28705 7.69307 5.34844 6.56256 7.85959 4.57933C10.9908 2.1078 9.38412 0.5 9.38412 0.5C10.0322 3.05344 7.09793 3.82475 6.03884 5.41495C5.31756 6.49851 6.39281 7.66283 7.85873 8.98528ZM11.2381 15.3971C8.86076 15.8447 5.92828 15.7925 4.18953 15.5054C4.18953 15.5054 4.54563 15.8003 6.37596 15.9181C9.16087 16.0962 13.4386 15.819 13.5397 14.5012C13.5397 14.5012 13.3451 15.0007 11.2381 15.3971Z" fill="#4B5563"/>
</g>
<defs>
<clipPath id="clip0_1026_5709">
<rect width="16" height="16" fill="white" transform="translate(0 0.5)"/>
</clipPath>
</defs>
</svg>
