<svg width="17" height="17" viewBox="0 0 17 17" fill="none" xmlns="http://www.w3.org/2000/svg">
<g clip-path="url(#clip0_989_78)">
<path d="M10.3028 0.62L10.9028 0.753333L11.3895 0.926667L11.7828 1.12667L12.0828 1.34L12.3095 1.56667L12.4762 1.79333L12.5828 2.01333L12.6495 2.21333L12.6762 2.38667L12.6895 2.52L12.6828 2.60667V6.16667L12.6495 6.58667L12.5628 6.95333L12.4228 7.26L12.2495 7.51333L12.0495 7.72L11.8295 7.88667L11.5962 8.01333L11.3628 8.10667L11.1428 8.17333L10.9428 8.22L10.7695 8.24667L10.6295 8.26H6.64948L6.18948 8.29333L5.79615 8.38667L5.46282 8.53333L5.18948 8.71333L4.96948 8.92667L4.78948 9.16L4.65615 9.4L4.55615 9.64667L4.48948 9.88L4.44282 10.0933L4.41615 10.2733L4.40282 10.4133V12.4533H2.91615L2.77615 12.4333L2.58948 12.3867L2.37615 12.3067L2.14282 12.1867L1.90282 12.0133L1.66282 11.7733L1.42948 11.4667L1.21615 11.0733L1.02948 10.5867L0.889484 10L0.796151 9.3L0.762817 8.48L0.802817 7.66667L0.909484 6.97333L1.06948 6.39333L1.28282 5.92L1.52282 5.54L1.78948 5.24667L2.06948 5.02667L2.34948 4.86667L2.61615 4.76L2.85615 4.69333L3.06948 4.66L3.22948 4.65333H3.33615L3.37615 4.66H8.81615V4.10667H4.92282L4.91615 2.27333L4.90282 2.02667L4.93615 1.8L5.00948 1.59333L5.12282 1.40667L5.28948 1.23333L5.49615 1.08L5.74948 0.946667L6.04282 0.826667L6.38282 0.726667L6.76948 0.646667L7.19615 0.58L7.66948 0.54L8.18282 0.513333L8.74282 0.5L9.58949 0.533333L10.3028 0.62ZM6.10282 1.94L5.94948 2.16L5.89615 2.43333L5.94948 2.70667L6.10282 2.93333L6.32282 3.08L6.59615 3.14L6.86948 3.08L7.08948 2.93333L7.24282 2.70667L7.29615 2.43333L7.24282 2.16L7.08948 1.94L6.86948 1.79333L6.59615 1.73333L6.32282 1.79333L6.10282 1.94ZM14.8295 4.57333L15.0162 4.61333L15.2295 4.69333L15.4628 4.81333L15.7028 4.99333L15.9428 5.22667L16.1762 5.54L16.3895 5.93333L16.5762 6.42L16.7162 7.00667L16.8095 7.7L16.8428 8.52L16.8028 9.34L16.6962 10.0333L16.5362 10.6067L16.3228 11.08L16.0828 11.46L15.8162 11.76L15.5362 11.98L15.2562 12.14L14.9895 12.2467L14.7495 12.3067L14.5362 12.34L14.3762 12.3533L14.2695 12.3467H8.78948V12.8933H12.6828L12.6895 14.7333L12.7028 14.9733L12.6695 15.2L12.5962 15.4067L12.4828 15.6L12.3162 15.7667L12.1095 15.9267L11.8562 16.06L11.5628 16.1733L11.2228 16.2733L10.8362 16.36L10.4095 16.42L9.93615 16.4667L9.42282 16.4933L8.86282 16.5L8.01615 16.4733L7.30282 16.38L6.70282 16.2467L6.21615 16.08L5.82282 15.88L5.52282 15.66L5.29615 15.4333L5.12948 15.2067L5.02282 14.9867L4.95615 14.7867L4.92948 14.62L4.91615 14.4867L4.92282 14.4V10.84L4.95615 10.4133L5.04282 10.0533L5.18282 9.74667L5.35615 9.49333L5.55615 9.28L5.77615 9.12L6.00948 8.98667L6.24282 8.89333L6.46282 8.82667L6.66282 8.78667L6.83615 8.76L6.97615 8.74667L7.06282 8.74H10.9562L11.4162 8.70667L11.8095 8.61333L12.1428 8.47333L12.4162 8.28667L12.6362 8.07333L12.8162 7.84L12.9495 7.6L13.0495 7.36L13.1161 7.12667L13.1628 6.91333L13.1895 6.72667L13.2028 6.58667V4.54667H14.5962L14.6895 4.55333L14.8295 4.57333ZM10.5162 14.0733L10.3628 14.2933L10.3095 14.5667L10.3628 14.84L10.5162 15.06L10.7362 15.2133L11.0095 15.2667L11.2828 15.2133L11.5028 15.06L11.6562 14.84L11.7095 14.5667L11.6562 14.2933L11.5028 14.0733L11.2828 13.92L11.0095 13.8667L10.7362 13.92L10.5162 14.0733Z" fill="#F9FAFB"/>
</g>
<defs>
<clipPath id="clip0_989_78">
<rect width="16" height="16" fill="white" transform="translate(0.802856 0.5)"/>
</clipPath>
</defs>
</svg>
