<svg width="16" height="17" viewBox="0 0 16 17" fill="none" xmlns="http://www.w3.org/2000/svg">
<g clip-path="url(#clip0_1026_6403)">
<path d="M9.50094 0.705938L10.1009 0.839271L10.5876 1.0126L10.9809 1.2126L11.2809 1.42594L11.5076 1.6526L11.6743 1.87927L11.7809 2.09927L11.8476 2.29927L11.8743 2.4726L11.8876 2.60594L11.8809 2.6926V6.2526L11.8476 6.6726L11.7609 7.03927L11.6209 7.34594L11.4476 7.59927L11.2476 7.80594L11.0276 7.9726L10.7943 8.09927L10.5609 8.1926L10.3409 8.25927L10.1409 8.30594L9.9676 8.3326L9.8276 8.34594H5.8476L5.3876 8.37927L4.99427 8.4726L4.66094 8.61927L4.3876 8.79927L4.1676 9.0126L3.9876 9.24594L3.85427 9.48594L3.75427 9.7326L3.6876 9.96594L3.64094 10.1793L3.61427 10.3593L3.60094 10.4993V12.5393H2.11427L1.97427 12.5193L1.7876 12.4726L1.57427 12.3926L1.34094 12.2726L1.10094 12.0993L0.860937 11.8593L0.627604 11.5526L0.414271 11.1593L0.227604 10.6726L0.0876042 10.0859L-0.00572917 9.38594L-0.0390625 8.56594L0.000937499 7.7526L0.107604 7.05927L0.267604 6.47927L0.480938 6.00594L0.720937 5.62594L0.987604 5.3326L1.2676 5.1126L1.5476 4.9526L1.81427 4.84594L2.05427 4.77927L2.2676 4.74594L2.4276 4.73927H2.53427L2.57427 4.74594H8.01427V4.1926H4.12094L4.11427 2.35927L4.10094 2.1126L4.13427 1.88594L4.2076 1.67927L4.32094 1.4926L4.4876 1.31927L4.69427 1.16594L4.9476 1.0326L5.24094 0.912604L5.58094 0.812604L5.9676 0.732604L6.39427 0.665937L6.8676 0.625937L7.38094 0.599271L7.94094 0.585938L8.78761 0.619271L9.50094 0.705938ZM5.30094 2.02594L5.1476 2.24594L5.09427 2.51927L5.1476 2.7926L5.30094 3.01927L5.52094 3.16594L5.79427 3.22594L6.06761 3.16594L6.2876 3.01927L6.44094 2.7926L6.49427 2.51927L6.44094 2.24594L6.2876 2.02594L6.06761 1.87927L5.79427 1.81927L5.52094 1.87927L5.30094 2.02594ZM14.0276 4.65927L14.2143 4.69927L14.4276 4.77927L14.6609 4.89927L14.9009 5.07927L15.1409 5.3126L15.3743 5.62594L15.5876 6.01927L15.7743 6.50594L15.9143 7.0926L16.0076 7.78594L16.0409 8.60594L16.0009 9.42594L15.8943 10.1193L15.7343 10.6926L15.5209 11.1659L15.2809 11.5459L15.0143 11.8459L14.7343 12.0659L14.4543 12.2259L14.1876 12.3326L13.9476 12.3926L13.7343 12.4259L13.5743 12.4393L13.4676 12.4326H7.9876V12.9793H11.8809L11.8876 14.8193L11.9009 15.0593L11.8676 15.2859L11.7943 15.4926L11.6809 15.6859L11.5143 15.8526L11.3076 16.0126L11.0543 16.1459L10.7609 16.2593L10.4209 16.3593L10.0343 16.4459L9.6076 16.5059L9.13427 16.5526L8.62094 16.5793L8.06094 16.5859L7.21427 16.5593L6.50094 16.4659L5.90094 16.3326L5.41427 16.1659L5.02094 15.9659L4.72094 15.7459L4.49427 15.5193L4.3276 15.2926L4.22094 15.0726L4.15427 14.8726L4.1276 14.7059L4.11427 14.5726L4.12094 14.4859V10.9259L4.15427 10.4993L4.24094 10.1393L4.38094 9.8326L4.55427 9.57927L4.75427 9.36594L4.97427 9.20594L5.2076 9.0726L5.44094 8.97927L5.66094 8.9126L5.86094 8.8726L6.03427 8.84594L6.17427 8.8326L6.26094 8.82594H10.1543L10.6143 8.7926L11.0076 8.69927L11.3409 8.55927L11.6143 8.3726L11.8343 8.15927L12.0143 7.92594L12.1476 7.68594L12.2476 7.44594L12.3143 7.2126L12.3609 6.99927L12.3876 6.8126L12.4009 6.6726V4.6326H13.7943L13.8876 4.63927L14.0276 4.65927ZM9.71427 14.1593L9.56094 14.3793L9.5076 14.6526L9.56094 14.9259L9.71427 15.1459L9.93427 15.2993L10.2076 15.3526L10.4809 15.2993L10.7009 15.1459L10.8543 14.9259L10.9076 14.6526L10.8543 14.3793L10.7009 14.1593L10.4809 14.0059L10.2076 13.9526L9.93427 14.0059L9.71427 14.1593Z" fill="#4B5563"/>
</g>
<defs>
<clipPath id="clip0_1026_6403">
<rect width="16" height="16" fill="white" transform="translate(0 0.585938)"/>
</clipPath>
</defs>
</svg>
