<svg width="17" height="17" viewBox="0 0 17 17" fill="none" xmlns="http://www.w3.org/2000/svg">
<path d="M5.80819 0.5C5.61686 0.5 5.42619 0.5 5.23486 0.501333C5.07419 0.502667 4.91286 0.503333 4.75219 0.508C4.66419 0.51 4.57686 0.514 4.48886 0.518C4.22491 0.528265 3.96192 0.555656 3.70152 0.6C3.35449 0.661364 3.01813 0.77251 2.70286 0.93C2.06998 1.25193 1.55537 1.76609 1.23286 2.39867C1.06952 2.71867 0.96619 3.04667 0.902856 3.39867C0.840856 3.74533 0.821523 4.09867 0.81219 4.44933C0.807868 4.61019 0.805202 4.77109 0.80419 4.932C0.802856 5.12333 0.802856 5.314 0.802856 5.50533V11.4947C0.802856 11.686 0.802856 11.878 0.80419 12.0693C0.805523 12.2293 0.807523 12.39 0.81219 12.5507C0.821523 12.9013 0.840856 13.2553 0.902856 13.6013C0.96619 13.9533 1.06952 14.2813 1.23286 14.6013C1.55499 15.2342 2.06971 15.7484 2.70286 16.07C3.02286 16.2327 3.34952 16.3367 3.70152 16.4C4.04819 16.462 4.40152 16.4827 4.75219 16.492C4.91286 16.4967 5.07419 16.498 5.23486 16.4987C5.42619 16.5 5.61686 16.5 5.80819 16.5H11.7975C11.9889 16.5 12.1795 16.5 12.3709 16.4987C12.5315 16.498 12.6929 16.4967 12.8535 16.492C13.206 16.4878 13.5577 16.4571 13.9055 16.4C14.253 16.3402 14.5895 16.229 14.9042 16.07C15.5367 15.748 16.0509 15.2338 16.3729 14.6013C16.5362 14.2813 16.6395 13.9533 16.7029 13.6013C16.7649 13.2547 16.7855 12.9013 16.7949 12.5507C16.7995 12.39 16.8009 12.23 16.8015 12.0693C16.8029 11.878 16.8029 11.686 16.8029 11.4947V5.50533C16.8029 5.314 16.8029 5.12333 16.8015 4.932C16.801 4.77109 16.7988 4.61019 16.7949 4.44933C16.7907 4.0973 16.7599 3.74608 16.7029 3.39867C16.6432 3.05079 16.5319 2.71375 16.3729 2.39867C16.0507 1.76626 15.5366 1.25212 14.9042 0.93C14.5896 0.770977 14.253 0.659755 13.9055 0.6C13.5577 0.542871 13.206 0.512117 12.8535 0.508C12.6931 0.504122 12.5327 0.501899 12.3722 0.501333C12.1809 0.5 11.9889 0.5 11.7975 0.5H5.80819ZM9.83152 2.77333C12.5742 4.42 14.1949 7.548 13.5309 10.194C13.5149 10.256 13.4975 10.3147 13.4802 10.3753L13.4815 10.376C14.8562 12.068 14.4815 13.8813 14.3055 13.5393C13.5909 12.1487 12.2615 12.494 11.5802 12.844C11.5186 12.8806 11.4561 12.9157 11.3929 12.9493L11.3795 12.9573L11.3782 12.9587C9.96819 13.7073 8.07352 13.762 6.17019 12.944C4.62041 12.2724 3.30978 11.1482 2.41019 9.71867C2.84286 10.0387 3.31019 10.32 3.80819 10.5533C5.82086 11.496 7.84219 11.4273 9.27286 10.552C7.23686 8.98667 5.53686 6.94667 4.23352 5.294C3.98576 5.00494 3.76171 4.69639 3.56352 4.37133C5.12352 5.79933 7.58886 7.59133 8.47352 8.08867C6.59619 6.10533 4.94152 3.662 5.01886 3.74C7.97619 6.72 10.7042 8.404 10.7042 8.404C10.8069 8.46067 10.8842 8.50667 10.9442 8.546C11.0009 8.40267 11.0509 8.25467 11.0935 8.10067C11.5655 6.37533 11.0335 4.402 9.83152 2.77267V2.77333Z" fill="#F9FAFB"/>
</svg>
