<svg width="16" height="17" viewBox="0 0 16 17" fill="none" xmlns="http://www.w3.org/2000/svg">
<g clip-path="url(#clip0_1026_6407)">
<path d="M5.00533 0.585938C4.814 0.585938 4.62333 0.585938 4.432 0.587271C4.27133 0.588604 4.11 0.589271 3.94933 0.593938C3.86133 0.595938 3.774 0.599938 3.686 0.603938C3.42206 0.614203 3.15906 0.641594 2.89867 0.685938C2.55163 0.747301 2.21527 0.858448 1.9 1.01594C1.26713 1.33787 0.752509 1.85202 0.43 2.4846C0.266667 2.8046 0.163333 3.1326 0.1 3.4846C0.038 3.83127 0.0186667 4.1846 0.00933333 4.53527C0.00501187 4.69613 0.00234506 4.85703 0.00133333 5.01794C0 5.20927 0 5.39994 0 5.59127V11.5806C0 11.7719 0 11.9639 0.00133333 12.1553C0.00266667 12.3153 0.00466667 12.4759 0.00933333 12.6366C0.0186667 12.9873 0.038 13.3413 0.1 13.6873C0.163333 14.0393 0.266667 14.3673 0.43 14.6873C0.752133 15.3201 1.26685 15.8344 1.9 16.1559C2.22 16.3186 2.54667 16.4226 2.89867 16.4859C3.24533 16.5479 3.59867 16.5686 3.94933 16.5779C4.11 16.5826 4.27133 16.5839 4.432 16.5846C4.62333 16.5859 4.814 16.5859 5.00533 16.5859H10.9947C11.186 16.5859 11.3767 16.5859 11.568 16.5846C11.7287 16.5839 11.89 16.5826 12.0507 16.5779C12.4031 16.5737 12.7548 16.543 13.1027 16.4859C13.4501 16.4262 13.7867 16.3149 14.1013 16.1559C14.7338 15.834 15.248 15.3198 15.57 14.6873C15.7333 14.3673 15.8367 14.0393 15.9 13.6873C15.962 13.3406 15.9827 12.9873 15.992 12.6366C15.9967 12.4759 15.998 12.3159 15.9987 12.1553C16 11.9639 16 11.7719 16 11.5806V5.59127C16 5.39994 16 5.20927 15.9987 5.01794C15.9982 4.85703 15.996 4.69613 15.992 4.53527C15.9878 4.18323 15.957 3.83201 15.9 3.4846C15.8403 3.13673 15.7291 2.79969 15.57 2.4846C15.2479 1.8522 14.7337 1.33806 14.1013 1.01594C13.7867 0.856915 13.4501 0.745692 13.1027 0.685938C12.7548 0.628809 12.4032 0.598054 12.0507 0.593938C11.8903 0.590059 11.7298 0.587837 11.5693 0.587271C11.378 0.585938 11.186 0.585938 10.9947 0.585938H5.00533ZM9.02867 2.85927C11.7713 4.50594 13.392 7.63394 12.728 10.2799C12.712 10.3419 12.6947 10.4006 12.6773 10.4613L12.6787 10.4619C14.0533 12.1539 13.6787 13.9673 13.5027 13.6253C12.788 12.2346 11.4587 12.5799 10.7773 12.9299C10.7157 12.9665 10.6533 13.0016 10.59 13.0353L10.5767 13.0433L10.5753 13.0446C9.16533 13.7933 7.27067 13.8479 5.36733 13.0299C3.81756 12.3584 2.50693 11.2341 1.60733 9.8046C2.04 10.1246 2.50733 10.4059 3.00533 10.6393C5.018 11.5819 7.03933 11.5133 8.47 10.6379C6.434 9.0726 4.734 7.0326 3.43067 5.37994C3.18291 5.09088 2.95885 4.78233 2.76067 4.45727C4.32067 5.88527 6.786 7.67727 7.67067 8.1746C5.79333 6.19127 4.13867 3.74794 4.216 3.82594C7.17333 6.80594 9.90133 8.48994 9.90133 8.48994C10.004 8.5466 10.0813 8.5926 10.1413 8.63194C10.198 8.4886 10.248 8.3406 10.2907 8.1866C10.7627 6.46127 10.2307 4.48794 9.02867 2.8586V2.85927Z" fill="#4B5563"/>
</g>
<defs>
<clipPath id="clip0_1026_6407">
<rect width="16" height="16" fill="white" transform="translate(0 0.585938)"/>
</clipPath>
</defs>
</svg>
